# xmcd
#
# Track frame offsets: 
#        150
#        20438
#        38227
#        59620
#        74058
#        109975
#        123756
#        146814
#        181543
#        199811
#
# Disc length: 3111 seconds
#
# Revision: 4
# Processed by: cddbd v1.5.2PL0 Copyright (c) Steve Scherf et al.
# Submitted via: ExactAudioCopy v0.99pb4
#
DISCID=940c250a
DTITLE=Paul Motian - Time And Time Again
DYEAR=2007
DGENRE=Jazz
TTITLE0=Cambodia
TTITLE1=Wednesday
TTITLE2=Onetwo
TTITLE3=Whirlpool
TTITLE4=In Remembrance Of Things Past
TTITLE5=K.T.
TTITLE6=This Nearly Was Mine
TTITLE7=Party Line
TTITLE8=Light Blue
TTITLE9=Time And Time Again
EXTD=YEAR: 2996
EXTT0=
EXTT1=
EXTT2=
EXTT3=
EXTT4=
EXTT5=
EXTT6=
EXTT7=
EXTT8=
EXTT9=
PLAYORDER=
